<?xml version="1.0" standalone="no"?>
<!DOCTYPE svg PUBLIC "-//W3C//DTD SVG 20010904//EN"
 "http://www.w3.org/TR/2001/REC-SVG-20010904/DTD/svg10.dtd">
<svg version="1.0" xmlns="http://www.w3.org/2000/svg"
 width="93.000000pt" height="93.000000pt" viewBox="0 0 93.000000 93.000000"
 preserveAspectRatio="xMidYMid meet">
<metadata>
Created by potrace 1.11, written by Peter Selinger 2001-2013
</metadata>
<g transform="translate(0.000000,93.000000) scale(0.100000,-0.100000)"
fill="#000000" stroke="none">
<path d="M371 898 c-120 -17 -285 -97 -345 -169 -21 -25 -24 -34 -15 -57 6
-15 19 -36 30 -48 17 -19 19 -27 9 -68 -59 -265 129 -518 394 -530 82 -4 140
8 211 44 75 37 123 79 169 149 62 92 85 213 60 321 -12 53 -12 55 17 95 40 56
33 81 -39 135 -141 106 -318 152 -491 128z m234 -45 c108 -24 286 -128 285
-166 0 -7 -14 -28 -30 -47 l-29 -35 -28 23 c-103 82 -200 121 -312 126 -127 5
-254 -36 -340 -111 -22 -18 -43 -33 -48 -33 -11 1 -58 65 -58 81 0 19 89 84
163 120 117 57 264 72 397 42z m9 -173 c57 -22 131 -71 149 -101 8 -12 3 -25
-18 -53 -15 -20 -31 -36 -36 -36 -4 0 -21 12 -36 26 -107 101 -293 103 -405 5
-20 -17 -40 -31 -45 -31 -6 0 -23 19 -39 41 l-29 42 40 34 c48 41 127 81 185
92 67 13 170 5 234 -19z m-484 -129 c17 -43 75 -101 99 -101 14 0 21 -6 21
-19 0 -10 7 -24 15 -31 8 -7 15 -16 15 -20 0 -4 -37 -26 -82 -49 l-83 -41 -13
38 c-26 70 -21 252 7 252 5 0 14 -13 21 -29z m710 3 c19 -50 14 -176 -10 -239
l-10 -25 -83 41 -84 42 21 38 c13 25 28 39 41 39 21 0 95 91 95 116 0 24 20
15 30 -12z m-277 -30 c39 -20 87 -63 87 -80 0 -6 -13 -26 -29 -45 l-30 -34
-30 29 c-55 53 -139 50 -199 -7 l-24 -22 -28 35 c-16 19 -30 39 -30 43 0 18
74 77 113 90 50 17 125 13 170 -9z m-69 -144 c28 0 66 -52 66 -90 0 -87 -102
-124 -162 -59 -30 31 -34 52 -18 93 11 29 68 69 88 61 8 -3 19 -5 26 -5z"/>
<path d="M453 328 c1 -7 -6 -12 -15 -12 -25 2 -33 -34 -12 -57 25 -28 72 -25
86 6 16 36 -3 75 -37 75 -15 0 -24 -5 -22 -12z"/>
</g>
</svg>
